<?xml version="1.0" encoding="UTF-8"?>
<svg id="Layer_2" data-name="Layer 2" xmlns="http://www.w3.org/2000/svg" xmlns:xlink="http://www.w3.org/1999/xlink" viewBox="0 0 1606.25 247.11">
  <defs>
    <style>
      .cls-1 {
        fill: url(#linear-gradient);
      }

      .cls-1, .cls-2, .cls-3, .cls-4, .cls-5, .cls-6 {
        stroke-width: 0px;
      }

      .cls-2 {
        fill: #1a1a1a;
      }

      .cls-3 {
        fill: url(#linear-gradient-5);
      }

      .cls-4 {
        fill: url(#linear-gradient-2);
      }

      .cls-5 {
        fill: url(#linear-gradient-3);
      }

      .cls-6 {
        fill: url(#linear-gradient-4);
      }
    </style>
    <linearGradient id="linear-gradient" x1="132.05" y1="50.37" x2="68.75" y2="261.84" gradientUnits="userSpaceOnUse">
      <stop offset="0" stop-color="#fbb03b"/>
      <stop offset=".32" stop-color="#db7446"/>
      <stop offset=".79" stop-color="#af2156"/>
      <stop offset="1" stop-color="#9e005d"/>
    </linearGradient>
    <linearGradient id="linear-gradient-2" x1="181.95" y1="75.94" x2="169.53" y2="117.42" xlink:href="#linear-gradient"/>
    <linearGradient id="linear-gradient-3" x1="209.12" y1="177.97" x2="184.49" y2="260.27" xlink:href="#linear-gradient"/>
    <linearGradient id="linear-gradient-4" x1="122.99" y1="109.71" x2="109.55" y2="154.62" xlink:href="#linear-gradient"/>
    <linearGradient id="linear-gradient-5" x1="489.93" y1="41.76" x2="537.84" y2="41.76" xlink:href="#linear-gradient"/>
  </defs>
  <g id="Layer_1-2" data-name="Layer 1">
    <g>
      <path class="cls-1" d="m86.32,0h-52.82C15,0,0,15,0,33.5v180.11c0,18.5,15,33.5,33.5,33.5h47.55c12.56,0,24.88-3.48,35.58-10.04l97.99-60.1c20.18-12.38,32.48-34.35,32.48-58.02h0c0-24.85-13.54-47.72-35.32-59.67L119.06,8.39C109.03,2.89,97.76,0,86.32,0Zm126.47,145.6l-141.31,86.67c-3.81,2.34-8.03,3.51-12.25,3.51-3.89,0-7.78-1-11.36-3-8.63-4.83-13.99-14.53-13.99-25.31V43.26c0-10.51,5.16-20.09,13.47-25.01,7.27-4.3,15.69-4.44,23.1-.38l141.31,77.54c8.59,4.71,13.87,13.92,14.13,24.62.26,10.65-4.77,20.45-13.11,25.56Z"/>
      <path class="cls-4" d="m247.11,56.02v-22.52c0-18.5-15-33.5-33.5-33.5h-65.54c-3.83,0-5.14,5.1-1.78,6.94l95.34,52.32c2.47,1.35,5.48-.43,5.48-3.24Z"/>
      <path class="cls-5" d="m144.79,247.11h68.82c18.5,0,33.5-15,33.5-33.5v-39.71l-104.83,64.29c-4.14,2.54-2.34,8.91,2.51,8.91Z"/>
      <path class="cls-2" d="m427.15,233.87c-6.62,4-13.59,6.94-20.91,8.83-7.31,1.89-15.31,2.83-23.99,2.83-26.51,0-48.1-8.42-64.78-25.28-16.68-16.85-25.02-38.76-25.02-65.72s8.4-47.9,25.19-64.52c16.79-16.62,38.56-24.93,65.29-24.93,8.91,0,16.91.86,23.99,2.57,7.08,1.71,13.82,4.4,20.22,8.05l-.34,49.01c-5.14-5.25-11.08-9.31-17.82-12.17-6.74-2.85-13.88-4.28-21.42-4.28-13.71,0-24.68,4.2-32.9,12.6-8.22,8.4-12.34,19.51-12.34,33.33s4.2,25.45,12.6,33.84c8.4,8.4,19.74,12.6,34.02,12.6,7.88,0,14.88-1.43,20.99-4.28,6.11-2.85,11.74-7.31,16.88-13.37l.34,50.89Z"/>
      <path class="cls-2" d="m912.14,228.63c-6.62,4-13.59,6.94-20.91,8.83-7.31,1.89-15.31,2.83-23.99,2.83-26.51,0-48.1-8.42-64.78-25.28-16.68-16.85-25.02-38.76-25.02-65.72s8.4-47.9,25.19-64.52c16.79-16.62,38.56-24.93,65.29-24.93,8.91,0,16.91.86,23.99,2.57,7.08,1.71,13.82,4.4,20.22,8.05l-.34,49.01c-5.14-5.25-11.08-9.31-17.82-12.17-6.74-2.85-13.88-4.28-21.42-4.28-13.71,0-24.68,4.2-32.9,12.6-8.22,8.4-12.34,19.51-12.34,33.33s4.2,25.45,12.6,33.84c8.4,8.4,19.74,12.6,34.02,12.6,7.88,0,14.88-1.43,20.99-4.28,6.11-2.85,11.74-7.31,16.88-13.37l.34,50.89Z"/>
      <path class="cls-2" d="m492.2,238.84V70.74h48.67v168.11h-48.67Z"/>
      <path class="cls-2" d="m663.84,113.92c4.91-16.34,11.96-28.56,21.16-36.67,9.2-8.11,20.59-12.17,34.19-12.17,3.09,0,8.17.57,15.25,1.71,1.37.23,2.4.4,3.09.51l-7.37,52.44c-3.66-1.48-7.34-2.6-11.05-3.34-3.72-.74-7.63-1.11-11.74-1.11-14.85,0-25.53,3.8-32.05,11.4-6.51,7.6-9.77,20.31-9.77,38.13v74.03h-48.84V70.74h48.15l-1.03,43.18Z"/>
      <path class="cls-2" d="m1025.02,70.74v88.42c0,14.85,2.88,25.48,8.65,31.87,5.77,6.4,15.17,9.6,28.19,9.6s22.28-3.23,28.1-9.68c5.83-6.45,8.74-17.05,8.74-31.79v-88.42h48.84v88.42c0,29.59-6.91,51.38-20.73,65.38-13.83,13.99-35.24,20.99-64.26,20.99s-51.32-6.97-65.21-20.91c-13.88-13.94-20.82-35.76-20.82-65.46v-88.42h48.5Z"/>
      <path class="cls-2" d="m1222.7,238.84V70.74h48.67v168.11h-48.67Z"/>
      <path class="cls-2" d="m1353.22,238.84V108.95h-23.48v-38.21h23.48V14.87h48.84v55.86h23.48v38.21h-23.48v129.89h-48.84Z"/>
      <path class="cls-2" d="m1465.56,209.37l37.53-19.36c1.26,6.51,4.63,11.65,10.11,15.42,5.48,3.77,12.28,5.66,20.39,5.66s14.28-1.46,18.85-4.37c4.57-2.91,6.86-6.94,6.86-12.08,0-8.11-8.11-14.91-24.34-20.39-5.03-1.71-9.03-3.14-11.99-4.28-19.77-7.43-33.44-14.91-41.04-22.45-7.6-7.54-11.4-16.85-11.4-27.93,0-16.45,6.45-29.76,19.36-39.93,12.91-10.17,29.93-15.25,51.07-15.25,15.08,0,28.13,3.03,39.15,9.08,11.02,6.06,19.05,14.63,24.08,25.71l-35.82,17.82c-1.94-6.28-5.31-11.05-10.11-14.31-4.8-3.26-10.79-4.88-17.99-4.88s-13.02,1.49-17.48,4.46c-4.46,2.97-6.68,6.85-6.68,11.65,0,8.34,11.08,16.11,33.24,23.31,2.63.8,4.63,1.43,6,1.88,18.39,6.06,31.47,13.11,39.24,21.16,7.77,8.05,11.65,18.31,11.65,30.76,0,16.68-6.46,29.93-19.37,39.76-12.91,9.82-30.33,14.74-52.26,14.74-17.37,0-32.19-3.23-44.47-9.68-12.28-6.45-20.48-15.28-24.59-26.48Z"/>
      <path class="cls-6" d="m97.72,98.87v48.77c0,2.99,3.28,4.83,5.83,3.27l42.57-26.02c2.53-1.54,2.42-5.25-.19-6.65l-42.57-22.75c-2.55-1.36-5.64.48-5.64,3.38Z"/>
      <rect class="cls-2" x="1223.23" y="28.98" width="47.9" height="25.55"/>
      <rect class="cls-3" x="489.93" y="28.98" width="47.9" height="25.55"/>
    </g>
  </g>
</svg>